<?xml version="1.0" encoding="UTF-8"?>
<svg id="Layer_2" data-name="Layer 2" xmlns="http://www.w3.org/2000/svg" viewBox="0 0 641.06 127.84">
  <defs>
    <style>
      .cls-1 {
        fill: #fff;
        font-family: CenturyGothic, 'Century Gothic';
        font-size: 38.49px;
      }

      .cls-2 {
        fill: #00bf5f;
        stroke-width: 0px;
      }
    </style>
  </defs>
  <g id="Layer_1-2" data-name="Layer 1">
    <g>
      <g>
        <path class="cls-2" d="m37.45.62c4.73,0,9.34,1.74,9.34,6.85,0,12.39-22.29,12.08-22.29,15.88,0,6.97,26.02,3.74,26.02,24.09,0,8.97-8.16,15.44-17.12,15.44H5.14V.62h32.31Zm-.5,53.54c7.22,0,12.64-1.87,12.64-7.28,0-12.2-31.57-5.67-31.57-18.93,0-8.03,19.49-6.29,19.49-19.3,0-5.85-5.48-7.1-12.45-7.1h-10.9v52.61h22.79Z"/>
        <path class="cls-2" d="m69.95,35.86c-6.1-2.55-12.83-3.67-16-3.86,1.81-7.78,9.9-12.08,16.93-12.08,12.39,0,13.32,8.03,15.5,16.93,2.18,8.84,3.67,15.63,6.23,26.02h-9.15v-13.2c0,5.6-6.23,13.82-17.74,13.82-5.85,0-12.08-3.18-12.08-8.97,0-7.78,8.16-14.26,16.31-18.68Zm2.55,1.12c-5.48,4.11-10.09,9.77-10.09,16.19,0,4.55,4.05,7.85,9.15,7.85,6.04,0,10.96-7.35,10.96-11.33,0-5.85-4.48-9.9-10.02-12.7Zm10.9-6.79c-.37-5.11-3.92-7.53-8.09-7.53-7.85,0-12.02,5.6-12.02,8.16,0,.56.19,1.62,1.25,1.93,2.37.68,4.67,1.49,6.72,2.37,4.73-2.37,9.28-4.11,12.14-4.92Zm-9.84,6.04c5.92,3.11,9.9,7.35,9.9,13.45v-18.43c-2.99.93-6.6,2.68-9.9,4.98Z"/>
        <path class="cls-2" d="m107.31,19.92v13.39c1.37-5.79,5.35-13.39,13.51-13.39,2.49,0,4.61.5,6.35,1.56l-3.3,8.16c-2.18-1.06-4.42-1.99-7.22-1.99-4.86,0-9.34,3.98-9.34,10.71v24.53h-9.03V28.76c0-3.36-1.37-4.05-4.42-4.05v-.31c4.61-.56,10.21-2.61,13.45-4.48Z"/>
        <path class="cls-2" d="m127.79,41.71c0-14.82,7.47-21.79,17.56-21.79s17.62,6.97,17.62,21.79-7.84,21.79-17.62,21.79-17.56-6.97-17.56-21.79Zm8.53,2.24c2.62,11.14,8.9,19.18,13.88,17.93,5.04-1.25,6.97-11.27,4.36-22.41s-8.9-19.24-13.95-17.99c-4.98,1.25-6.91,11.27-4.3,22.48Z"/>
        <path class="cls-2" d="m169.19,45.01c0-14.94,9.53-24.47,23.91-24.47h11.14v62.26h-9.03v-27.52c-2.43,4.98-6.66,8.22-12.51,8.22-9.59,0-13.51-9.15-13.51-18.49Zm8.34-1.49c0,6.66,3.42,14.13,10.33,14.13s7.35-4.11,7.35-5.98v-30.2h-2.49c-8.47,0-15.19,9.28-15.19,22.04Z"/>
        <path class="cls-2" d="m211.09,51.68v-31.13h9.03v34.24c0,3.98,2.05,5.92,5.04,5.92,6.66,0,11.89-7.97,11.89-16.62v-23.53h9.03v42.34h-9.03v-12.76c-.87,5.23-6.23,13.39-15.25,13.39-3.3,0-10.71-.62-10.71-11.83Z"/>
        <path class="cls-2" d="m252.93,42.34c0-11.58,5.85-22.41,20.3-22.41,9.21,0,15.25,5.35,15.25,11.08s-5.04,7.41-10.27,9.9c-5.98,2.86-12.27,6.23-14.94,7.66,3.11,4.11,7.84,6.66,13.7,6.66,4.67,0,9.28-2.05,11.7-5.17h.31l-3.55,11.14c-3.3,1.68-7.41,2.3-11.39,2.3-11.58,0-21.11-9.15-21.11-21.17Zm5.79-8.34c0,5.29,1.43,10.15,4.05,13.88,3.74-2.12,16.69-10.09,16.69-16.87,0-3.3-1.99-9.28-10.83-9.28-6.91,0-9.9,6.23-9.9,12.27Z"/>
        <path class="cls-2" d="m350.56.62c4.73,0,9.34,1.74,9.34,6.85,0,12.39-22.29,12.08-22.29,15.88,0,6.97,26.02,3.74,26.02,24.09,0,8.97-8.16,15.44-17.12,15.44h-28.27V.62h32.31Zm-.5,53.54c7.22,0,12.64-1.87,12.64-7.28,0-12.2-31.57-5.67-31.57-18.93,0-8.03,19.49-6.29,19.49-19.3,0-5.85-5.48-7.1-12.45-7.1h-10.9v52.61h22.79Z"/>
        <path class="cls-2" d="m378.33,0v62.88h-9.03V8.59c0-3.36-1.37-3.8-4.42-3.8v-.31c4.61-.56,10.21-2.61,13.45-4.48Z"/>
        <path class="cls-2" d="m385.17,41.71c0-14.82,7.47-21.79,17.56-21.79s17.62,6.97,17.62,21.79-7.84,21.79-17.62,21.79-17.56-6.97-17.56-21.79Zm8.53,2.24c2.62,11.14,8.9,19.18,13.88,17.93,5.04-1.25,6.97-11.27,4.36-22.41-2.62-11.14-8.9-19.24-13.95-17.99-4.98,1.25-6.91,11.27-4.3,22.48Z"/>
        <path class="cls-2" d="m424.71,56.84l4.73-11.14c3.92,7.97,11.58,14.94,20.98,14.94,2.24,0,4.11-1.43,4.11-3.86,0-10.71-28.64-9.21-28.64-25.03,0-7.97,7.41-11.83,16.81-11.83,6.91,0,12.45,2.93,14.57,4.36l-4.73,9.4c-4.17-4.67-10.52-10.83-18.62-10.83-2.99,0-4.36,2.05-4.36,4.11,0,11.39,28.76,9.03,28.76,25.09,0,7.72-6.97,11.46-16.31,11.46-7.47,0-13.07-2.24-17.31-6.66Z"/>
        <path class="cls-2" d="m460.82,56.84l4.73-11.14c3.92,7.97,11.58,14.94,20.98,14.94,2.24,0,4.11-1.43,4.11-3.86,0-10.71-28.64-9.21-28.64-25.03,0-7.97,7.41-11.83,16.81-11.83,6.91,0,12.45,2.93,14.57,4.36l-4.73,9.4c-4.17-4.67-10.52-10.83-18.62-10.83-2.99,0-4.36,2.05-4.36,4.11,0,11.39,28.76,9.03,28.76,25.09,0,7.72-6.97,11.46-16.31,11.46-7.47,0-13.07-2.24-17.31-6.66Z"/>
        <path class="cls-2" d="m498.8,41.71c0-14.82,7.47-21.79,17.56-21.79s17.62,6.97,17.62,21.79-7.84,21.79-17.62,21.79-17.56-6.97-17.56-21.79Zm8.53,2.24c2.62,11.14,8.9,19.18,13.88,17.93,5.04-1.25,6.97-11.27,4.36-22.41-2.62-11.14-8.9-19.24-13.95-17.99-4.98,1.25-6.91,11.27-4.3,22.48Z"/>
        <path class="cls-2" d="m550.54,19.92v13.39c.87-5.23,6.23-13.39,15.25-13.39,3.3,0,10.71.62,10.71,11.83v1.56c.87-5.23,6.23-13.39,15.25-13.39,3.3,0,10.71.62,10.71,11.83v31.13h-9.03V28.64c0-3.98-2.05-5.92-5.04-5.92-6.66,0-11.89,7.97-11.89,16.62v23.53h-9.03V28.64c0-3.98-2.05-5.92-5.04-5.92-6.66,0-11.89,7.97-11.89,16.62v23.53h-9.03V28.76c0-3.36-1.37-4.05-4.42-4.05v-.31c4.61-.56,10.21-2.61,13.45-4.48Z"/>
        <path class="cls-2" d="m607.44,56.84l4.73-11.14c3.92,7.97,11.58,14.94,20.98,14.94,2.24,0,4.11-1.43,4.11-3.86,0-10.71-28.64-9.21-28.64-25.03,0-7.97,7.41-11.83,16.81-11.83,6.91,0,12.45,2.93,14.57,4.36l-4.73,9.4c-4.17-4.67-10.52-10.83-18.62-10.83-2.99,0-4.36,2.05-4.36,4.11,0,11.39,28.76,9.03,28.76,25.09,0,7.72-6.97,11.46-16.31,11.46-7.47,0-13.07-2.24-17.31-6.66Z"/>
      </g>
      <text class="cls-1" transform="translate(0 116.03)"><tspan x="0" y="0">A CONCERT FOR SPRING</tspan></text>
    </g>
  </g>
</svg>