<svg width="32" height="32" viewBox="0 0 32 32" fill="none" xmlns="http://www.w3.org/2000/svg">
<path fill-rule="evenodd" clip-rule="evenodd" d="M22.6452 0C25.3548 0 27.7419 0.903225 29.4194 2.64516C31.0968 4.32258 32 6.64516 32 9.35484V22.6452C32 25.4194 31.0968 27.8065 29.3548 29.4839C27.6774 31.0968 25.3548 32 22.5806 32H9.41935C6.77419 32 4.45161 31.1613 2.70968 29.4839C0.903226 27.7419 0 25.3548 0 22.5806V9.35484C0 3.74193 3.74194 0 9.35484 0H22.6452ZM27.2903 27.3548C28.4516 26.2581 29.1613 24.6452 29.1613 22.6452V9.35484C29.1613 7.48387 28.5161 5.87097 27.4194 4.70968C26.2581 3.54839 24.6452 2.96774 22.7097 2.96774H9.41935C7.48387 2.96774 5.80645 3.54839 4.70968 4.64516C3.54839 5.80645 2.96774 7.41935 2.96774 9.35484V22.5806C2.96774 24.5806 3.54839 26.1935 4.70968 27.3548C5.87097 28.4516 7.48387 29.0323 9.41935 29.0323H22.5806C24.5161 29.0323 26.129 28.4516 27.2903 27.3548ZM24.58 9.35473C25.6133 9.35473 26.4509 8.51707 26.4509 7.48376C26.4509 6.45045 25.6133 5.61279 24.58 5.61279C23.5466 5.61279 22.709 6.45045 22.709 7.48376C22.709 8.51707 23.5466 9.35473 24.58 9.35473ZM16.0003 7.67725C11.4841 7.67725 7.74219 11.3547 7.74219 15.9353C7.74219 20.516 11.4196 24.1934 16.0003 24.1934C20.5809 24.1934 24.2583 20.4514 24.2583 15.9353C24.2583 11.4192 20.5164 7.67725 16.0003 7.67725ZM16.0003 21.2256C13.097 21.2256 10.7099 18.8385 10.7099 15.9353C10.7099 13.0321 13.097 10.645 16.0003 10.645C18.9035 10.645 21.2906 13.0321 21.2906 15.9353C21.2906 18.8385 18.9035 21.2256 16.0003 21.2256Z" fill="#FFFEFF"/>
</svg>
