<svg id="Logo" xmlns="http://www.w3.org/2000/svg" viewBox="0 0 211.04 347.61"><defs><style>.cls-1{fill:#fff;}</style></defs><path class="cls-1" d="M505.52,497.34c-1-.2-1.72-.32-2.42-.49-19.06-4.47-38.3-7.28-57.94-6.36a169.86,169.86,0,0,0-43.08,7.77,6.09,6.09,0,0,1-3.41.08A167.66,167.66,0,0,0,332.53,491a242.76,242.76,0,0,0-35.31,5.91c-.71.17-1.43.28-2.48.49.51-.86.82-1.43,1.17-2q12.34-18.72,24.65-37.44a5.53,5.53,0,0,1,3.72-2.5,173.7,173.7,0,0,1,30.88-4.53V251.72H339.27v-7.45h16.2c.67-3.43,1.19-6.65,1.94-9.82,5.36-22.87,17.72-41.06,36.8-54.69a4.53,4.53,0,0,0,2.3-4.32c-.16-4.76-.05-9.53-.05-14.44H404c0,4.76.1,9.45-.05,14.13a4.94,4.94,0,0,0,2.4,4.72c21.24,15.29,34,35.89,38,61.79.31,2,.92,2.62,2.92,2.56,4.54-.15,9.09,0,13.79,0v7.45H445.21V450.76c5,.55,9.91.9,14.76,1.66,5.74.91,11.44,2.13,17.13,3.33a4,4,0,0,1,2.25,1.59q12.79,19.23,25.46,38.53A12.16,12.16,0,0,1,505.52,497.34ZM304,490.06a12.15,12.15,0,0,0,1.32-.13,187.43,187.43,0,0,1,31.58-5c19.39-1.35,38.54-.1,57.19,5.66a19.33,19.33,0,0,0,12,0c27.25-8.15,54.79-7.77,82.44-2.14,2.48.51,4.95,1.07,7.71,1.67a7.15,7.15,0,0,0-.47-1c-6.56-9.09-13.1-18.18-19.72-27.23a5,5,0,0,0-2.32-1.56A89.57,89.57,0,0,0,446.9,456a143.35,143.35,0,0,0-40.36,4.76,22.83,22.83,0,0,1-12.72,0,137.88,137.88,0,0,0-30.72-4.63,106.46,106.46,0,0,0-34.17,3.45,10.16,10.16,0,0,0-6,4.15c-5.73,8.21-11.68,16.27-17.54,24.38C305,488.62,304.62,489.18,304,490.06Zm119.16-70.77c.06-1.05.12-1.71.12-2.38q0-81.37,0-162.76c0-.9.57-2.53-1.1-2.37s-4-1.45-4.93,1.44a17.42,17.42,0,0,1-11.74,11.7,1.94,1.94,0,0,0-1.55,2.24q.06,44.83,0,89.68a3.11,3.11,0,0,0,.52,2.05c2.91,3,3.73,6.76,4.38,10.59,1.18,6.92,2.24,13.86,3.3,20.8a5.39,5.39,0,0,0,2.21,3.86,14.76,14.76,0,0,1,5.19,17.55,52.47,52.47,0,0,1-2.5,5.25c-.82,1.68-.47,2.3,1.42,2.35C420,419.32,421.5,419.29,423.19,419.29Zm-45.89-.17c.59.07,1.09.16,1.6.17,4.93.06,6.14.66,3.23-4.91-4.17-8-2.54-15,4.48-20.71a3.84,3.84,0,0,0,1.3-2.15c1.14-6.69,2.15-13.41,3.25-20.11.68-4.12,1.29-8.26,4-11.74a5.93,5.93,0,0,0,1.27-3.31c.08-16.13,0-32.27,0-48.41,0-13.52,0-27,0-40.56a2.2,2.2,0,0,0-1.77-2.54,17.76,17.76,0,0,1-11.61-11.56,2.59,2.59,0,0,0-1.49-1.53,28,28,0,0,0-4.32-.07Zm-4.47,32.13V251.86h-3.21V451Zm54.81-199.41V451.23l3.21-.28V251.84Zm-66.26,0V450.7h3.19V251.84Zm34.93,204.35v-49.3h-3.22c-4.52,0-4.28.05-5.24,4.54-.71,3.3-.06,5.58,2.8,7.38.52.32.75,1.49.69,2.24-.14,1.83-1.7,1.36-2.76,1.26-1.77-.16-2.56.42-2.72,2.24-.21,2.3-.79,4.57-1,6.87-.14,1.48-.79,1.88-2.15,1.82-1.77-.08-3.54,0-5.36,0v18.22Zm27-23c-2.13,0-3.91-.06-5.68,0-1.28.06-1.88-.36-2-1.7-.28-2.37-.88-4.7-1.06-7.08-.14-1.81-.94-2.23-2.58-2.14-1,.05-2.21.51-2.75-1.11s.33-2.09,1.26-2.93,2.42-2.08,2.45-3.16a35.1,35.1,0,0,0-1.08-7.28,1.41,1.41,0,0,0-1-.89c-2.2-.09-4.41,0-6.62,0V456c6.08-1.39,12-2.73,17.95-4.15a1.77,1.77,0,0,0,1.1-1.28C423.33,445,423.3,439.28,423.3,433.22ZM439,450.65V251.84c-3.3-.32-3.31-.32-3.31,2.78v196Zm-.74-206.76a14.5,14.5,0,0,0-.16-1.82,115.51,115.51,0,0,0-9.89-29.4c-4.27-8.33-9.63-15.83-17.21-21.5-2.09-1.56-4.39-2.85-7-4.53,0,4.06-.08,7.42.07,10.76a2.81,2.81,0,0,0,1.46,1.87,43.83,43.83,0,0,1,12.57,9.6c8.59,9.32,13.37,20.57,16.3,32.69C435,243.84,435.82,244.64,438.28,243.89Zm-41.83-56.61a2.81,2.81,0,0,0-.87,0,10.76,10.76,0,0,0-1.4.7,48.89,48.89,0,0,0-12.49,10.43c-9.37,10.94-14.48,23.91-18,37.64-.65,2.57-1.13,5.18-1.68,7.73,2.43.83,3.48.24,4-2.1a84.9,84.9,0,0,1,3.37-11.13c5.14-13.38,12.72-24.83,26-31.53a1.88,1.88,0,0,0,1-1.28C396.48,194.28,396.45,190.79,396.45,187.28Zm7.55,17a23.09,23.09,0,0,1,0,3.56c-.87,5.15,1.07,8.44,5.43,11.57,7.75,5.56,13.62,12.94,16.47,22.33.82,2.72.9,2.76,4.32,2-1.2-3.69-2.27-7.4-3.61-11-2.93-7.89-6.61-15.37-12.47-21.56A25.43,25.43,0,0,0,404,204.3Zm-33.37,39.55c3.05.67,3.05.61,4-2.08a46,46,0,0,1,2.41-6c4.14-8.12,10.56-14.19,17.86-19.44.61-.45,1.48-1.12,1.5-1.72.15-3.33.07-6.67.07-10C386.21,206.76,371.68,229.05,370.63,243.85Zm8.16.06c3.56.55,3.53.53,4.8-2.59a17.91,17.91,0,0,1,11-10.44c.65-.23,1.7-.68,1.72-1.08.16-2.62.08-5.26.08-8C389.13,224.79,380.39,235.85,378.79,243.91ZM404,221.46c0,2.49.11,4.48,0,6.45-.12,1.74.38,2.58,2.17,3.18A17.07,17.07,0,0,1,417,241.66c1.12,2.89,1.3,3,4.85,2.06A39.11,39.11,0,0,0,404,221.46ZM396.31,390.3V364.65l-.77-.11c-1.49,8.86-3,17.73-4.53,26.83Zm8.57-25.75-.68.11v25.68l5.18.9C407.84,382.12,406.36,373.34,404.88,364.55Zm-8.65,28.24c-2.11,1.06-4.82,1.52-5.59,3-1.2,2.28-1.06,5.25-1.5,8h7.32c0-3.06,0-5.95,0-8.84C396.45,394.47,396.35,394,396.23,392.79Zm15,11.06c-.44-2.73-.82-5.3-1.28-7.86a1.77,1.77,0,0,0-.78-1.21c-1.61-.63-3.27-1.12-5.22-1.77v10.84ZM396.46,244c0-2.23,0-4.3,0-6.37,0-.71-.07-1.43-.1-2.17-4.18.83-8,4.71-8.51,8.54Zm7.55-8.86c0,2.83-.05,5.29,0,7.74,0,.43.57,1.18.9,1.19,2.56.1,5.13.06,8,.06A13.91,13.91,0,0,0,404,235.13Zm-16.23,16.7c.86,4.19,5,8.21,8.53,8.32v-8.32Zm16.33,8.44c4-.62,8.12-4.77,8.38-8.39h-8.38ZM423.3,430c0-2,.06-4.22-.06-6.42a1.67,1.67,0,0,0-1.15-1.17c-1.45-.15-2.92-.06-4.62-.06.22,1.67.39,3.06.6,4.43.63,4,.64,4,4.76,3.51C422.9,430.29,423,430.23,423.3,430Zm-46-7.51v7.79h4.46c.4-2.54.81-5.08,1.24-7.79Zm38.37-11.1c2.64-4.35,1.62-10.59-2.13-13.3C414.24,402.58,414.92,406.83,415.65,411.4Zm-30.87-.18c.71-4.42,1.34-8.43,2.06-12.94A10.67,10.67,0,0,0,384.78,411.22Z" transform="translate(-294.48 -161)"/><path class="cls-1" d="M294.48,502.44a111.41,111.41,0,0,1,24-4.69,236.12,236.12,0,0,1,39.17-1c14,.9,27.77,2.84,41.07,7.5a4.61,4.61,0,0,0,2.75.08c12.93-4.27,26.27-6.2,39.8-7.1a238.72,238.72,0,0,1,40.28.93,111.06,111.06,0,0,1,23.92,4.67,27.94,27.94,0,0,1-2.4,3.36,2.38,2.38,0,0,1-2,.6c-10.09-3.52-20.63-4.35-31.13-4.51-13.66-.22-27.35.15-41,.79a95.59,95.59,0,0,0-27.17,5.32,3.69,3.69,0,0,1-2.13.06c-19.19-6.12-39-7.18-58.93-7-11.51.14-23,.57-34.33,2.84a41,41,0,0,0-6.68,1.83c-1.66.65-2.64.39-3.46-1.14A26.64,26.64,0,0,0,294.48,502.44Z" transform="translate(-294.48 -161)"/><path class="cls-1" d="M375.67,465.79c5.19,0,8.67,2.64,8.93,6.1.24,3.27-2.8,6.49-6.87,7.38a10.27,10.27,0,0,1-7.36-1c-3.88-2.14-4.49-6.39-1.38-9.54A9.81,9.81,0,0,1,375.67,465.79Zm5,7.28c0-3.36-2.22-5.89-5.11-5.91a4.65,4.65,0,0,0-4.64,4.94c0,3.44,2.24,6,5.27,6C379,478.06,380.71,476.09,380.69,473.07Z" transform="translate(-294.48 -161)"/><path class="cls-1" d="M421.94,478.75c-4.33,0-7.81-2.5-8.19-5.8s2.43-6.79,6.62-7.5a13.82,13.82,0,0,1,6.91.52c4.64,1.74,5.45,7.11,1.57,10.17-1.89,1.49-4.41,2.16-6.64,3.21Zm5.44-6.45c0-3.35-2.18-5.92-5.07-6a4.69,4.69,0,0,0-4.68,4.92c0,3.4,2.26,6.06,5.23,6.07C425.53,477.33,427.38,475.27,427.38,472.3Z" transform="translate(-294.48 -161)"/><path class="cls-1" d="M342.32,464.41c-.27-2.21.69-3.88,2.6-4.43s3.68.1,4.4,2c1.19,3.12,2.1,6.35,3.11,9.54a19,19,0,0,0,1.16,3.61,4.17,4.17,0,0,0,2.36,2c.68.13,1.58-.92,2.36-1.46a9.43,9.43,0,0,0,.81-.68,3.08,3.08,0,0,1-1.36,4.29,3.57,3.57,0,0,1-4.91-1.19,33.8,33.8,0,0,1-1.73-4.8c-.3-.89-.56-1.8-1-3.11-1.61,2.67-3.14,4.88-4.33,7.26-1,2.11-2.45,2.77-4.88,2,2.39-3.83,4.67-7.65,7.11-11.37a3.57,3.57,0,0,0,.25-3.94c-1.17-2.35-3.34-2.58-4.83-.43a4.77,4.77,0,0,0-.36,1.53Z" transform="translate(-294.48 -161)"/><path class="cls-1" d="M450.58,464.05a39.74,39.74,0,0,1,4.89,1.39c.56.23.88,1.24,1.11,2,.08.26-.55,1-.65,1a4.77,4.77,0,0,1-1.79-1c-3.19-3.18-9.73-1.72-11.23,2.51-.64,1.81-.22,3.1,1.68,3.68a27.49,27.49,0,0,0,3.26.74c1.1.2,2.23.22,3.31.5,1.68.42,3.75.94,3.74,2.93a4.91,4.91,0,0,1-2.11,3.8c-1.6.76-3.68.49-5.56.55a6.89,6.89,0,0,1-.34-1.5c.52,0,1.23-.34,1.53-.1a2.46,2.46,0,0,0,3.61-.12,2.74,2.74,0,0,0,.8-2.12,2.59,2.59,0,0,0-1.71-1.43,18.27,18.27,0,0,0-3.56-.31,34.17,34.17,0,0,1-3.8-.19c-4.45-.76-5.8-4.28-2.95-7.85C443.27,465.46,446.67,464.3,450.58,464.05Z" transform="translate(-294.48 -161)"/><path class="cls-1" d="M400.11,474.2c.87-2.1,1.85-4.16,2.6-6.3s2.24-2.68,4.6-2c-1.87,3.08-3.61,6.09-5.49,9a7.25,7.25,0,0,0-1.4,5,6.75,6.75,0,0,1-.5,3.48,2.81,2.81,0,0,1-2.25,1.13c-.41,0-1-1.24-1.11-2a3.27,3.27,0,0,1,.59-2.11c2.56-3.74.48-7.28-.44-10.84a2.46,2.46,0,0,0-1.76-1.41c-.53,0-1.16.82-1.72,1.3-.3.26-.55.58-1.16,1.23-.57-2.13-.23-3.57,1.21-4.61s3.61-.67,4.29.84C398.6,469.22,399.25,471.66,400.11,474.2Z" transform="translate(-294.48 -161)"/></svg>