<svg width="32" height="23" viewBox="0 0 32 23" fill="none" xmlns="http://www.w3.org/2000/svg">
<path d="M31.3315 3.49782C30.9636 2.12094 29.8793 1.03675 28.5024 0.668751C26.0067 -1.78814e-07 16 0 16 0C16 0 5.99332 -1.78814e-07 3.49757 0.668751C2.12094 1.03675 1.0365 2.12094 0.668564 3.49782C0 5.99332 0 11.2002 0 11.2002C0 11.2002 0 16.407 0.668564 18.9022C1.0365 20.2791 2.12094 21.3636 3.49757 21.7315C5.99332 22.4 16 22.4 16 22.4C16 22.4 26.0067 22.4 28.5024 21.7315C29.8793 21.3636 30.9636 20.2791 31.3315 18.9022C32 16.407 32 11.2002 32 11.2002C32 11.2002 32 5.99332 31.3315 3.49782V3.49782ZM12.7998 16.0003V6.40007L21.1135 11.2002L12.7998 16.0003Z" fill="#FFFEFF"/>
</svg>
